HIERARCHY
ROOT Hips
{
	OFFSET 0.000000 100.481300 0.000000
	CHANNELS 6 Xposition Yposition Zposition Xrotation Yrotation Zrotation
	JOINT Spine
	{
		OFFSET -0.279200 12.230698 -2.892100
		CHANNELS 3 Xrotation Yrotation Zrotation
		JOINT Spine1
		{
			OFFSET -0.325700 14.269203 -3.374200
			CHANNELS 3 Xrotation Yrotation Zrotation
			JOINT Spine2
			{
				OFFSET -0.372300 16.307602 -0.352600
				CHANNELS 3 Xrotation Yrotation Zrotation
				JOINT Neck
				{
					OFFSET -0.418800 17.814194 8.416900
					CHANNELS 3 Xrotation Yrotation Zrotation
					JOINT Head
					{
						OFFSET 0.000000 7.031097 3.806800
						CHANNELS 3 Xrotation Yrotation Zrotation
						JOINT HeadTop_End
						{
							OFFSET 0.000000 24.646606 12.978600
							CHANNELS 3 Xrotation Yrotation Zrotation
							End Site
							{
								OFFSET 0.000000 27.854965 0.000000
							}
						}
					}
				}
				JOINT LeftShoulder
				{
					OFFSET 16.952999 14.495407 -7.737500
					CHANNELS 3 Xrotation Yrotation Zrotation
					JOINT LeftArm
					{
						OFFSET 9.308998 -2.777710 0.208600
						CHANNELS 3 Xrotation Yrotation Zrotation
						JOINT LeftForeArm
						{
							OFFSET 29.972298 0.000000 0.000000
							CHANNELS 3 Xrotation Yrotation Zrotation
							JOINT LeftHand
							{
								OFFSET 26.026505 0.000000 0.000000
								CHANNELS 3 Xrotation Yrotation Zrotation
								JOINT LeftHandThumb1
								{
									OFFSET 12.240501 -7.147949 9.207150
									CHANNELS 3 Xrotation Yrotation Zrotation
									JOINT LeftHandThumb2
									{
										OFFSET 4.138618 -2.389435 2.389433
										CHANNELS 3 Xrotation Yrotation Zrotation
										JOINT LeftHandThumb3
										{
											OFFSET 2.726913 -1.574387 1.574386
											CHANNELS 3 Xrotation Yrotation Zrotation
											JOINT LeftHandThumb4
											{
												OFFSET 3.941010 -2.275345 2.275342
												CHANNELS 3 Xrotation Yrotation Zrotation
												End Site
												{
													OFFSET -0.005798 5.087799 0.009903
												}
											}
										}
									}
								}
								JOINT LeftHandIndex1
								{
									OFFSET 24.424698 -1.985611 5.953459
									CHANNELS 3 Xrotation Yrotation Zrotation
									JOINT LeftHandIndex2
									{
										OFFSET 6.426697 0.000000 0.000000
										CHANNELS 3 Xrotation Yrotation Zrotation
										JOINT LeftHandIndex3
										{
											OFFSET 5.337898 0.000000 0.000000
											CHANNELS 3 Xrotation Yrotation Zrotation
											JOINT LeftHandIndex4
											{
												OFFSET 4.409401 0.000000 0.000000
												CHANNELS 3 Xrotation Yrotation Zrotation
												End Site
												{
													OFFSET 0.000000 4.409363 0.014373
												}
											}
										}
									}
								}
								JOINT LeftHandMiddle1
								{
									OFFSET 23.810104 0.000000 0.000000
									CHANNELS 3 Xrotation Yrotation Zrotation
									JOINT LeftHandMiddle2
									{
										OFFSET 7.176498 0.000000 0.000000
										CHANNELS 3 Xrotation Yrotation Zrotation
										JOINT LeftHandMiddle3
										{
											OFFSET 6.774902 0.000000 0.000000
											CHANNELS 3 Xrotation Yrotation Zrotation
											JOINT LeftHandMiddle4
											{
												OFFSET 5.403328 0.000000 0.000000
												CHANNELS 3 Xrotation Yrotation Zrotation
												End Site
												{
													OFFSET -0.027702 5.403244 0.017414
												}
											}
										}
									}
								}
								JOINT LeftHandRing1
								{
									OFFSET 22.908401 -0.839279 -6.020567
									CHANNELS 3 Xrotation Yrotation Zrotation
									JOINT LeftHandRing2
									{
										OFFSET 6.337502 0.000000 0.000000
										CHANNELS 3 Xrotation Yrotation Zrotation
										JOINT LeftHandRing3
										{
											OFFSET 5.779297 0.000000 0.000000
											CHANNELS 3 Xrotation Yrotation Zrotation
											JOINT LeftHandRing4
											{
												OFFSET 4.965698 0.000000 0.000000
												CHANNELS 3 Xrotation Yrotation Zrotation
												End Site
												{
													OFFSET 0.000000 4.965668 0.016186
												}
											}
										}
									}
								}
								JOINT LeftHandPinky1
								{
									OFFSET 20.037003 -1.530319 -10.950146
									CHANNELS 3 Xrotation Yrotation Zrotation
									JOINT LeftHandPinky2
									{
										OFFSET 5.254700 0.000000 0.000000
										CHANNELS 3 Xrotation Yrotation Zrotation
										JOINT LeftHandPinky3
										{
											OFFSET 4.810204 0.000000 0.000000
											CHANNELS 3 Xrotation Yrotation Zrotation
											JOINT LeftHandPinky4
											{
												OFFSET 3.647202 0.000000 0.000000
												CHANNELS 3 Xrotation Yrotation Zrotation
												End Site
												{
													OFFSET 0.000000 3.647186 0.011889
												}
											}
										}
									}
								}
							}
						}
					}
				}
				JOINT RightShoulder
				{
					OFFSET -15.141001 14.495407 -7.737500
					CHANNELS 3 Xrotation Yrotation Zrotation
					JOINT RightArm
					{
						OFFSET -9.308998 -2.777710 0.208500
						CHANNELS 3 Xrotation Yrotation Zrotation
						JOINT RightForeArm
						{
							OFFSET -29.972300 0.000000 0.000000
							CHANNELS 3 Xrotation Yrotation Zrotation
							JOINT RightHand
							{
								OFFSET -26.026505 0.000000 0.000000
								CHANNELS 3 Xrotation Yrotation Zrotation
								JOINT RightHandThumb1
								{
									OFFSET -12.240601 -7.148026 9.207092
									CHANNELS 3 Xrotation Yrotation Zrotation
									JOINT RightHandThumb2
									{
										OFFSET -4.138618 -2.389435 2.389433
										CHANNELS 3 Xrotation Yrotation Zrotation
										JOINT RightHandThumb3
										{
											OFFSET -2.726974 -1.574417 1.574421
											CHANNELS 3 Xrotation Yrotation Zrotation
											JOINT RightHandThumb4
											{
												OFFSET -3.941010 -2.275345 2.275343
												CHANNELS 3 Xrotation Yrotation Zrotation
												End Site
												{
													OFFSET 0.005814 5.087799 0.009927
												}
											}
										}
									}
								}
								JOINT RightHandIndex1
								{
									OFFSET -24.424698 -1.985657 5.953444
									CHANNELS 3 Xrotation Yrotation Zrotation
									JOINT RightHandIndex2
									{
										OFFSET -6.426697 0.000000 0.000000
										CHANNELS 3 Xrotation Yrotation Zrotation
										JOINT RightHandIndex3
										{
											OFFSET -5.337898 0.000000 0.000000
											CHANNELS 3 Xrotation Yrotation Zrotation
											JOINT RightHandIndex4
											{
												OFFSET -4.409401 0.000000 0.000000
												CHANNELS 3 Xrotation Yrotation Zrotation
												End Site
												{
													OFFSET 0.000000 4.409363 0.014408
												}
											}
										}
									}
								}
								JOINT RightHandMiddle1
								{
									OFFSET -23.810097 0.000000 0.000000
									CHANNELS 3 Xrotation Yrotation Zrotation
									JOINT RightHandMiddle2
									{
										OFFSET -7.176498 0.000000 0.000000
										CHANNELS 3 Xrotation Yrotation Zrotation
										JOINT RightHandMiddle3
										{
											OFFSET -6.774902 0.000000 0.000000
											CHANNELS 3 Xrotation Yrotation Zrotation
											JOINT RightHandMiddle4
											{
												OFFSET -5.403328 0.000000 0.000000
												CHANNELS 3 Xrotation Yrotation Zrotation
												End Site
												{
													OFFSET 0.027702 5.403244 0.017457
												}
											}
										}
									}
								}
								JOINT RightHandRing1
								{
									OFFSET -22.908302 -0.839325 -6.020576
									CHANNELS 3 Xrotation Yrotation Zrotation
									JOINT RightHandRing2
									{
										OFFSET -6.337502 0.000000 0.000000
										CHANNELS 3 Xrotation Yrotation Zrotation
										JOINT RightHandRing3
										{
											OFFSET -5.779297 0.000000 0.000000
											CHANNELS 3 Xrotation Yrotation Zrotation
											JOINT RightHandRing4
											{
												OFFSET -4.965698 0.000000 0.000000
												CHANNELS 3 Xrotation Yrotation Zrotation
												End Site
												{
													OFFSET 0.000000 4.965668 0.016226
												}
											}
										}
									}
								}
								JOINT RightHandPinky1
								{
									OFFSET -20.037003 -1.530334 -10.950259
									CHANNELS 3 Xrotation Yrotation Zrotation
									JOINT RightHandPinky2
									{
										OFFSET -5.254700 0.000000 0.000000
										CHANNELS 3 Xrotation Yrotation Zrotation
										JOINT RightHandPinky3
										{
											OFFSET -4.810204 0.000000 0.000000
											CHANNELS 3 Xrotation Yrotation Zrotation
											JOINT RightHandPinky4
											{
												OFFSET -3.647202 0.000000 0.000000
												CHANNELS 3 Xrotation Yrotation Zrotation
												End Site
												{
													OFFSET 0.000000 3.647186 0.011917
												}
											}
										}
									}
								}
							}
						}
					}
				}
			}
		}
	}
	JOINT LeftUpLeg
	{
		OFFSET 15.427100 -6.655098 0.678600
		CHANNELS 3 Xrotation Yrotation Zrotation
		JOINT LeftLeg
		{
			OFFSET 4.081073 -39.591068 13.024000
			CHANNELS 3 Xrotation Yrotation Zrotation
			JOINT LeftFoot
			{
				OFFSET -4.081074 -37.707932 -15.979700
				CHANNELS 3 Xrotation Yrotation Zrotation
				JOINT LeftToeBase
				{
					OFFSET 5.346399 -15.068900 20.645000
					CHANNELS 3 Xrotation Yrotation Zrotation
					JOINT LeftToe_End
					{
						OFFSET 2.754700 0.931300 11.300900
						CHANNELS 3 Xrotation Yrotation Zrotation
						End Site
						{
							OFFSET 0.000000 11.669021 0.000000
						}
					}
				}
			}
		}
	}
	JOINT RightUpLeg
	{
		OFFSET -15.569500 -6.655098 0.678600
		CHANNELS 3 Xrotation Yrotation Zrotation
		JOINT RightLeg
		{
			OFFSET -4.081825 -39.591045 13.023800
			CHANNELS 3 Xrotation Yrotation Zrotation
			JOINT RightFoot
			{
				OFFSET 4.081824 -37.707954 -15.979600
				CHANNELS 3 Xrotation Yrotation Zrotation
				JOINT RightToeBase
				{
					OFFSET -5.346400 -15.068900 20.645000
					CHANNELS 3 Xrotation Yrotation Zrotation
					JOINT RightToe_End
					{
						OFFSET -2.754700 0.931300 11.300900
						CHANNELS 3 Xrotation Yrotation Zrotation
						End Site
						{
							OFFSET 0.000000 11.669021 0.000000
						}
					}
				}
			}
		}
	}
}
MOTION
Frames: 6
Frame Time: 0.033333
0.213671 83.697662 -1.150142 4.898557 -19.882568 0.214530 -3.736572 -0.527262 3.701667 -2.136838 -1.376492 2.916931 -2.259391 -1.216676 2.933132 12.144058 -0.394825 -3.289818 -4.672571 -1.516977 -3.231286 -0.000000 -0.000002 0.000000 0.629326 3.250093 -9.145202 -12.017270 -23.002443 -47.398047 0.000031 -114.392828 0.000035 -16.607651 -10.231609 10.557113 33.463446 17.692290 -10.027831 19.178119 62.038301 -29.873355 4.891705 29.062482 -8.403467 -0.000003 0.000000 -0.000000 7.843420 6.813903 -98.057303 7.962719 6.796067 -99.064224 2.399760 5.227182 -49.295367 -0.000002 0.000000 -0.000001 7.841502 6.814182 -98.041095 7.964643 6.795772 -99.080425 2.399766 5.227186 -49.295367 -0.000001 -0.000000 0.000001 7.843420 6.813904 -98.057303 7.962724 6.796066 -99.064224 2.399761 5.227178 -49.295364 0.000001 0.000000 -0.000001 11.884146 6.247173 -98.006623 7.958065 2.710185 -99.007834 2.399765 5.227183 -49.295364 0.000001 -0.000000 0.000001 -3.389008 32.061608 13.630090 -3.430146 16.100573 38.433895 0.000041 135.558642 -0.000050 -4.978267 11.834085 -15.753258 44.079152 -5.327238 5.322807 68.067213 -31.397020 62.105476 26.811563 -12.735085 7.144031 -0.000001 0.000000 -0.000003 8.518557 -6.769302 103.092881 8.518560 -6.769304 103.092908 2.609839 -5.432563 51.294065 -0.000000 -0.000000 -0.000001 8.518556 -6.769301 103.092881 8.518565 -6.769306 103.092908 2.609837 -5.432567 51.294068 -0.000000 0.000000 0.000000 8.518556 -6.769306 103.092867 8.518569 -6.769312 103.092929 2.609839 -5.432562 51.294072 -0.000000 0.000000 -0.000000 8.518557 -6.769302 103.092881 8.518572 -6.769312 103.092908 2.609836 -5.432557 51.294072 -0.000000 -0.000000 -0.000001 -37.583792 -6.730052 15.704639 35.416792 -3.592113 1.468001 -2.025368 0.332055 -16.684339 -0.787931 -0.000008 -0.000003 0.000000 -0.000002 0.000000 -14.233812 -10.537110 -22.807938 34.005821 -0.827934 3.617177 -20.371411 -6.531137 18.377116 -0.028843 0.000041 0.000002 -0.000000 -0.000001 0.000000 
0.390758 83.705421 -0.856746 5.406369 -18.419497 0.071468 -3.762162 -0.534421 3.633418 -2.217199 -1.430153 2.824371 -2.333661 -1.278153 2.840899 12.097426 -0.578114 -3.181987 -4.766902 -2.707010 -2.753877 -0.000000 -0.000001 0.000000 0.445058 2.616182 -8.639182 -12.484493 -23.581991 -47.339010 0.000028 -115.553113 0.000043 -16.946526 -10.591778 10.783938 33.463446 17.692289 -10.027836 19.178113 62.038315 -29.873349 4.891700 29.062479 -8.403469 -0.000001 0.000001 -0.000000 7.843419 6.813908 -98.057310 7.962719 6.796065 -99.064224 2.399759 5.227182 -49.295364 -0.000001 -0.000001 -0.000000 7.841499 6.814183 -98.041095 7.964647 6.795771 -99.080425 2.399768 5.227186 -49.295367 -0.000001 -0.000001 0.000001 7.843419 6.813908 -98.057310 7.962722 6.796064 -99.064224 2.399760 5.227178 -49.295364 0.000001 -0.000000 -0.000000 11.884143 6.247174 -98.006623 7.958067 2.710186 -99.007834 2.399766 5.227183 -49.295360 -0.000002 0.000001 0.000000 -3.446933 32.047777 13.516722 -4.758640 15.681243 38.363557 0.000021 136.227235 -0.000033 -5.596742 11.971052 -15.047872 44.079155 -5.327236 5.322807 68.067213 -31.397017 62.105469 26.811569 -12.735087 7.144033 -0.000003 0.000000 0.000001 8.518558 -6.769301 103.092881 8.518560 -6.769304 103.092908 2.609839 -5.432563 51.294068 0.000000 -0.000000 0.000000 8.518557 -6.769299 103.092881 8.518565 -6.769306 103.092908 2.609836 -5.432567 51.294068 -0.000000 -0.000000 0.000001 8.518556 -6.769307 103.092867 8.518569 -6.769311 103.092915 2.609838 -5.432562 51.294062 -0.000000 0.000000 -0.000000 8.518559 -6.769301 103.092881 8.518574 -6.769313 103.092915 2.609836 -5.432557 51.294068 0.000000 0.000000 -0.000001 -38.486965 -8.022779 14.715818 35.375824 -4.492600 1.519703 -1.909520 0.337750 -16.418204 -0.825486 0.000007 0.000002 -0.000000 -0.000000 0.000000 -13.539141 -10.821743 -22.735483 33.461401 -1.324917 3.776698 -20.681289 -6.746699 18.619471 -0.034465 0.000018 -0.000001 0.000000 -0.000001 -0.000000 
0.503769 83.705902 -0.582854 5.891559 -16.847488 -0.107016 -3.815391 -0.533046 3.577162 -2.334421 -1.473590 2.720312 -2.446016 -1.330156 2.733025 12.088532 -0.761562 -3.080686 -4.886416 -3.959206 -2.201449 -0.000000 -0.000001 -0.000000 0.281687 1.887034 -8.152431 -12.863191 -24.138573 -47.168364 0.000006 -116.550662 0.000004 -16.981585 -10.906854 11.063779 33.463446 17.692287 -10.027834 19.178116 62.038301 -29.873345 4.891700 29.062482 -8.403469 -0.000002 -0.000000 0.000002 7.843421 6.813906 -98.057310 7.962722 6.796065 -99.064224 2.399762 5.227181 -49.295371 0.000002 -0.000000 -0.000001 7.841505 6.814181 -98.041095 7.964646 6.795772 -99.080425 2.399766 5.227188 -49.295367 -0.000001 -0.000001 0.000001 7.843421 6.813906 -98.057303 7.962723 6.796068 -99.064224 2.399760 5.227178 -49.295367 -0.000002 -0.000000 -0.000000 11.884149 6.247171 -98.006630 7.958065 2.710183 -99.007834 2.399765 5.227183 -49.295364 -0.000001 0.000000 0.000001 -3.591916 32.187167 13.385473 -6.238830 15.207022 38.411519 0.000008 136.131134 -0.000015 -6.579617 11.942698 -13.940766 44.079148 -5.327235 5.322807 68.067220 -31.397014 62.105469 26.811568 -12.735086 7.144033 0.000002 0.000001 -0.000000 8.518558 -6.769300 103.092881 8.518560 -6.769305 103.092908 2.609839 -5.432564 51.294068 0.000000 -0.000000 -0.000001 8.518558 -6.769298 103.092881 8.518564 -6.769307 103.092908 2.609837 -5.432568 51.294065 0.000000 -0.000000 -0.000001 8.518557 -6.769307 103.092867 8.518568 -6.769313 103.092922 2.609839 -5.432562 51.294068 -0.000000 -0.000000 -0.000000 8.518560 -6.769299 103.092881 8.518574 -6.769314 103.092908 2.609836 -5.432558 51.294068 -0.000000 -0.000000 -0.000000 -39.474966 -9.110805 13.737805 35.300914 -5.524420 1.598831 -1.716399 0.246486 -16.118785 -0.848165 -0.000010 -0.000001 -0.000000 -0.000000 -0.000000 -12.778749 -11.260980 -22.642494 32.948860 -1.937259 3.988130 -21.021581 -6.951411 18.865799 -0.034716 -0.000010 0.000010 0.000000 0.000000 -0.000000 
0.577941 83.654404 -0.338292 6.357231 -15.314005 -0.301462 -3.902418 -0.517408 3.533452 -2.491963 -1.488011 2.609657 -2.601095 -1.352951 2.611899 12.105612 -0.941014 -2.989249 -5.062178 -5.254298 -1.600333 0.000000 -0.000003 0.000000 0.143201 1.133213 -7.697074 -13.085374 -24.720316 -46.960539 -0.000035 -117.225225 -0.000036 -16.595695 -11.168476 11.404824 33.463446 17.692292 -10.027837 19.178118 62.038308 -29.873352 4.891697 29.062482 -8.403470 -0.000002 -0.000001 -0.000002 7.843417 6.813906 -98.057310 7.962717 6.796064 -99.064224 2.399761 5.227181 -49.295360 -0.000000 0.000000 0.000001 7.841499 6.814183 -98.041102 7.964646 6.795773 -99.080418 2.399766 5.227187 -49.295364 0.000002 0.000000 -0.000000 7.843418 6.813906 -98.057310 7.962724 6.796067 -99.064230 2.399760 5.227177 -49.295360 0.000001 -0.000001 -0.000000 11.884144 6.247172 -98.006630 7.958068 2.710186 -99.007840 2.399767 5.227184 -49.295364 -0.000001 0.000000 -0.000000 -3.856798 32.510584 13.232174 -7.858630 14.663339 38.637236 0.000001 134.973964 -0.000013 -8.003121 11.734812 -12.348585 44.079155 -5.327240 5.322803 68.067220 -31.397017 62.105462 26.811569 -12.735087 7.144032 -0.000001 -0.000002 -0.000001 8.518559 -6.769300 103.092881 8.518560 -6.769305 103.092915 2.609840 -5.432563 51.294068 0.000000 0.000000 0.000000 8.518557 -6.769298 103.092881 8.518565 -6.769307 103.092915 2.609837 -5.432567 51.294065 0.000000 -0.000000 -0.000000 8.518556 -6.769306 103.092867 8.518568 -6.769313 103.092922 2.609839 -5.432563 51.294068 -0.000000 -0.000000 -0.000000 8.518559 -6.769300 103.092881 8.518573 -6.769314 103.092915 2.609837 -5.432557 51.294072 0.000000 0.000000 -0.000001 -40.578567 -9.864138 12.826294 35.336305 -6.596740 1.726186 -1.505513 0.081303 -15.785192 -0.848585 0.000009 0.000003 -0.000000 0.000000 -0.000000 -12.067214 -11.670533 -22.547079 32.588007 -2.560664 4.271001 -21.422409 -7.158997 19.038746 -0.026993 -0.000004 0.000001 -0.000000 -0.000001 0.000000 
0.571175 83.447784 -0.171290 6.764905 -13.944767 -0.529019 -4.076983 -0.465989 3.524775 -2.757454 -1.422453 2.481133 -2.868597 -1.297079 2.454881 12.161154 -1.099434 -2.901745 -5.369348 -6.649188 -0.902654 -0.000000 0.000002 -0.000000 0.084781 0.392005 -7.300045 -12.823220 -25.468315 -46.674426 -0.000004 -117.047381 0.000002 -15.123130 -11.294185 11.900625 33.463439 17.692287 -10.027828 19.178126 62.038308 -29.873332 4.891704 29.062482 -8.403469 -0.000002 0.000002 -0.000001 7.843419 6.813904 -98.057310 7.962722 6.796067 -99.064230 2.399764 5.227182 -49.295360 0.000001 -0.000000 -0.000001 7.841498 6.814183 -98.041095 7.964646 6.795774 -99.080425 2.399765 5.227185 -49.295371 -0.000004 0.000001 0.000001 7.843420 6.813904 -98.057310 7.962724 6.796067 -99.064224 2.399765 5.227177 -49.295367 0.000001 -0.000000 -0.000000 11.884146 6.247172 -98.006623 7.958067 2.710185 -99.007840 2.399767 5.227183 -49.295364 -0.000001 0.000000 0.000001 -4.377272 33.321976 13.050395 -9.859722 13.950818 39.357503 -0.000023 131.085264 0.000025 -10.291003 11.049778 -9.606215 44.079152 -5.327238 5.322810 68.067220 -31.397020 62.105469 26.811563 -12.735086 7.144030 -0.000000 -0.000002 -0.000001 8.518558 -6.769301 103.092881 8.518561 -6.769304 103.092915 2.609839 -5.432564 51.294068 0.000000 0.000001 -0.000000 8.518557 -6.769301 103.092881 8.518565 -6.769306 103.092908 2.609837 -5.432568 51.294065 0.000000 -0.000000 0.000001 8.518557 -6.769307 103.092867 8.518569 -6.769313 103.092922 2.609839 -5.432562 51.294068 0.000000 -0.000000 -0.000001 8.518558 -6.769302 103.092881 8.518573 -6.769314 103.092908 2.609837 -5.432557 51.294075 0.000001 0.000000 -0.000000 -41.974777 -9.789165 12.118050 35.767522 -7.837887 2.001448 -1.302342 -0.106553 -15.314039 -0.804470 0.000012 -0.000002 0.000000 -0.000001 -0.000000 -11.520570 -11.903980 -22.497059 32.665428 -3.119396 4.784609 -22.001752 -7.401534 18.987984 -0.006104 -0.000003 -0.000001 -0.000000 0.000002 0.000000 
0.512400 82.968506 -0.167152 7.044484 -12.784775 -0.636032 -4.286851 -0.376422 3.523964 -2.931101 -1.333272 2.279397 -3.038256 -1.216647 2.238268 12.044689 -1.277563 -2.908778 -6.017141 -8.063770 -0.081954 0.000000 -0.000000 0.000000 0.001135 -0.272199 -7.065689 -12.208264 -26.123182 -46.444665 0.000030 -115.851469 0.000035 -13.211125 -11.197865 12.402810 33.463439 17.692283 -10.027830 19.178116 62.038315 -29.873352 4.891697 29.062486 -8.403469 0.000002 -0.000001 0.000001 7.843418 6.813902 -98.057310 7.962721 6.796067 -99.064224 2.399759 5.227182 -49.295367 0.000002 0.000000 -0.000001 7.841501 6.814180 -98.041095 7.964642 6.795772 -99.080425 2.399768 5.227186 -49.295367 -0.000001 -0.000001 0.000001 7.843420 6.813901 -98.057310 7.962725 6.796069 -99.064224 2.399757 5.227177 -49.295371 0.000001 -0.000000 -0.000000 11.884145 6.247168 -98.006623 7.958068 2.710185 -99.007834 2.399768 5.227183 -49.295364 0.000001 0.000000 -0.000001 -5.224326 34.510367 12.823847 -12.057265 13.044659 40.901379 0.000017 124.518542 -0.000028 -12.439736 9.997115 -5.860666 44.079155 -5.327237 5.322810 68.067213 -31.397017 62.105469 26.811566 -12.735085 7.144031 -0.000001 0.000000 0.000000 8.518557 -6.769302 103.092881 8.518559 -6.769304 103.092908 2.609839 -5.432563 51.294075 0.000000 0.000000 0.000000 8.518556 -6.769301 103.092881 8.518564 -6.769306 103.092908 2.609835 -5.432568 51.294068 -0.000001 -0.000000 -0.000001 8.518556 -6.769309 103.092867 8.518568 -6.769310 103.092915 2.609837 -5.432562 51.294075 0.000001 0.000000 -0.000002 8.518557 -6.769302 103.092881 8.518573 -6.769314 103.092908 2.609836 -5.432557 51.294072 -0.000001 0.000000 0.000001 -43.653242 -9.079857 11.542564 36.647667 -9.076236 2.354206 -1.137587 -0.557742 -14.817706 -0.783476 0.000007 0.000001 -0.000000 0.000002 0.000000 -11.436689 -11.976826 -22.817360 33.574693 -3.337180 5.582771 -22.919231 -7.634552 18.555976 0.000624 -0.000006 0.006611 0.000000 -0.000001 -0.000000 
